G04 #@! TF.FileFunction,Soldermask,Top*
%FSLAX46Y46*%
G04 Gerber Fmt 4.6, Leading zero omitted, Abs format (unit mm)*
G04 Created by KiCad (PCBNEW 4.0.2-stable) date 2018-09-14 2:15:48 PM*
%MOMM*%
G01*
G04 APERTURE LIST*
%ADD10C,0.200000*%
%ADD11R,1.250000X1.250000*%
%ADD12C,1.250000*%
%ADD13O,4.050000X2.550000*%
%ADD14O,2.550000X2.050000*%
%ADD15O,1.550000X3.550000*%
%ADD16O,2.550000X4.050000*%
%ADD17O,2.050000X2.550000*%
%ADD18O,3.550000X1.550000*%
%ADD19R,1.750000X1.750000*%
%ADD20O,1.750000X1.750000*%
%ADD21O,2.250000X1.450000*%
%ADD22O,2.300000X1.450000*%
%ADD23R,2.850000X1.650000*%
%ADD24O,2.850000X3.550000*%
%ADD25C,1.800000*%
G04 APERTURE END LIST*
D10*
D11*
X91880000Y-150530000D03*
D12*
X91880000Y-153070000D03*
D11*
X106000000Y-150530000D03*
D12*
X106000000Y-153070000D03*
D13*
X85000000Y-52560000D03*
D14*
X85000000Y-61960000D03*
D15*
X89900000Y-57260000D03*
X81700000Y-57260000D03*
D13*
X85000000Y-76560000D03*
D14*
X85000000Y-85960000D03*
D15*
X89900000Y-81260000D03*
X81700000Y-81260000D03*
D13*
X85000000Y-100560000D03*
D14*
X85000000Y-109960000D03*
D15*
X89900000Y-105260000D03*
X81700000Y-105260000D03*
D13*
X85000000Y-124560000D03*
D14*
X85000000Y-133960000D03*
D15*
X89900000Y-129260000D03*
X81700000Y-129260000D03*
D13*
X85000000Y-144560000D03*
D14*
X85000000Y-153960000D03*
D15*
X89900000Y-149260000D03*
X81700000Y-149260000D03*
D16*
X94300000Y-149260000D03*
D17*
X103700000Y-149260000D03*
D18*
X99000000Y-144360000D03*
X99000000Y-152560000D03*
D13*
X113000000Y-153960000D03*
D14*
X113000000Y-144560000D03*
D15*
X108100000Y-149260000D03*
X116300000Y-149260000D03*
D19*
X95250000Y-75000000D03*
D20*
X97790000Y-75000000D03*
X95250000Y-72460000D03*
X97790000Y-72460000D03*
X95250000Y-69920000D03*
X97790000Y-69920000D03*
X95250000Y-67380000D03*
X97790000Y-67380000D03*
X95250000Y-64840000D03*
X97790000Y-64840000D03*
D21*
X109750000Y-67000000D03*
X109750000Y-71500000D03*
D22*
X116250000Y-67000000D03*
X116250000Y-71500000D03*
D23*
X94500000Y-91000000D03*
D24*
X110800000Y-57250000D03*
X101200000Y-57250000D03*
D25*
X108500000Y-64750000D03*
X106000000Y-64750000D03*
X103500000Y-64750000D03*
D24*
X110800000Y-81260000D03*
X101200000Y-81260000D03*
D25*
X108500000Y-88760000D03*
X106000000Y-88760000D03*
X103500000Y-88760000D03*
D24*
X110800000Y-105250000D03*
X101200000Y-105250000D03*
D25*
X108500000Y-112750000D03*
X106000000Y-112750000D03*
X103500000Y-112750000D03*
D24*
X110790000Y-129250000D03*
X101190000Y-129250000D03*
D25*
X108490000Y-136750000D03*
X105990000Y-136750000D03*
X103490000Y-136750000D03*
M02*
