M48
;DRILL file {KiCad 4.0.2-stable} date 2018-09-14 2:15:51 PM
;FORMAT={2:4/ absolute / inch / suppress leading zeros}
FMAT,2
INCH,TZ
T1C0.016
T2C0.020
T3C0.026
T4C0.039
T5C0.047
T6C0.087
%
G90
G05
M72
T1
X32087Y-57736
X32874Y-54528
X35098Y-46654
X35335Y-57776
X35354Y-48839
X36063Y-51732
X36319Y-49400
X37047Y-49941
X37067Y-51043
X37087Y-45295
X37185Y-53504
X37559Y-48720
X37598Y-46457
X37657Y-39331
X37736Y-56791
X38248Y-43445
X38346Y-49941
X40157Y-56850
X40866Y-40039
X41240Y-37343
X41496Y-47283
X41929Y-37854
X42618Y-37343
X42677Y-55472
X44508Y-40531
X45256Y-29232
T2
X33563Y-57933
X35098Y-45138
X35768Y-46654
X36181Y-53071
X36713Y-52362
X37008Y-39331
X37008Y-39843
X37008Y-40354
X38583Y-48898
X39941Y-38661
X40295Y-39016
X40787Y-39016
X41351Y-55032
X42224Y-49213
X44783Y-42421
T3
X36173Y-59264
X36173Y-60264
X41732Y-59264
X41732Y-60264
T4
X37500Y-25528
X37500Y-26528
X37500Y-27528
X37500Y-28528
X37500Y-29528
X38500Y-25528
X38500Y-26528
X38500Y-27528
X38500Y-28528
X38500Y-29528
X40744Y-53839
X40748Y-25492
X40748Y-34945
X40748Y-44390
X41728Y-53839
X41732Y-25492
X41732Y-34945
X41732Y-44390
X42713Y-53839
X42717Y-25492
X42717Y-34945
X42717Y-44390
X43209Y-26378
X43209Y-28150
X45768Y-26378
X45768Y-28150
T5
X37205Y-35827
T6
X39839Y-50886
X39843Y-22539
X39843Y-31992
X39843Y-41437
X43618Y-50886
X43622Y-22539
X43622Y-31992
X43622Y-41437
T2
X32165Y-22150G85X32165Y-22937
G05
X32165Y-31598G85X32165Y-32386
G05
X32165Y-41047G85X32165Y-41835
G05
X32165Y-50496G85X32165Y-51283
G05
X32165Y-58370G85X32165Y-59157
G05
X35394Y-22150G85X35394Y-22937
G05
X35394Y-31598G85X35394Y-32386
G05
X35394Y-41047G85X35394Y-41835
G05
X35394Y-50496G85X35394Y-51283
G05
X35394Y-58370G85X35394Y-59157
G05
X38583Y-56835G85X39370Y-56835
G05
X38583Y-60063G85X39370Y-60063
G05
X42559Y-59157G85X42559Y-58370
G05
X45787Y-59157G85X45787Y-58370
G05
T4
X33760Y-20693G85X33169Y-20693
G05
X33563Y-24394G85X33366Y-24394
G05
X33760Y-30142G85X33169Y-30142
G05
X33563Y-33843G85X33366Y-33843
G05
X33760Y-39591G85X33169Y-39591
G05
X33563Y-43291G85X33366Y-43291
G05
X33760Y-49039G85X33169Y-49039
G05
X33563Y-52740G85X33366Y-52740
G05
X33760Y-56913G85X33169Y-56913
G05
X33563Y-60614G85X33366Y-60614
G05
X37126Y-58469G85X37126Y-59059
G05
X40827Y-58665G85X40827Y-58862
G05
X44390Y-56913G85X44587Y-56913
G05
X44193Y-60614G85X44783Y-60614
G05
T0
M30
