G04 #@! TF.FileFunction,Legend,Bot*
%FSLAX46Y46*%
G04 Gerber Fmt 4.6, Leading zero omitted, Abs format (unit mm)*
G04 Created by KiCad (PCBNEW 4.0.2-stable) date 2018-09-14 2:15:48 PM*
%MOMM*%
G01*
G04 APERTURE LIST*
%ADD10C,0.200000*%
%ADD11C,0.150000*%
%ADD12C,0.500000*%
%ADD13C,1.000000*%
%ADD14C,0.127000*%
%ADD15C,0.066040*%
%ADD16C,0.101600*%
%ADD17C,0.203200*%
%ADD18C,0.120000*%
%ADD19C,0.152400*%
%ADD20R,0.950000X0.850000*%
%ADD21R,0.850000X0.950000*%
%ADD22R,3.049740X1.650200*%
%ADD23R,1.447000X1.193000*%
%ADD24R,2.447760X2.447760*%
%ADD25R,1.250000X1.250000*%
%ADD26C,1.250000*%
%ADD27R,1.050760X0.751040*%
%ADD28R,0.659600X0.812000*%
%ADD29R,1.193000X1.447000*%
%ADD30O,4.050000X2.550000*%
%ADD31O,2.550000X2.050000*%
%ADD32O,1.550000X3.550000*%
%ADD33O,2.550000X4.050000*%
%ADD34O,2.050000X2.550000*%
%ADD35O,3.550000X1.550000*%
%ADD36R,1.750000X1.750000*%
%ADD37O,1.750000X1.750000*%
%ADD38R,0.751040X1.050760*%
%ADD39R,0.448780X0.847560*%
%ADD40O,2.250000X1.450000*%
%ADD41O,2.300000X1.450000*%
%ADD42R,1.650000X1.550000*%
%ADD43R,2.850000X1.650000*%
%ADD44R,0.450000X1.550000*%
%ADD45R,0.500000X1.500000*%
%ADD46R,1.500000X0.500000*%
%ADD47O,2.850000X3.550000*%
%ADD48C,1.800000*%
G04 APERTURE END LIST*
D10*
D11*
X102790476Y-154823810D02*
X102714286Y-154861905D01*
X102561905Y-154861905D01*
X102485714Y-154823810D01*
X102447619Y-154747619D01*
X102447619Y-154709524D01*
X102485714Y-154633333D01*
X102561905Y-154595238D01*
X102676190Y-154595238D01*
X102752381Y-154557143D01*
X102790476Y-154480952D01*
X102790476Y-154442857D01*
X102752381Y-154366667D01*
X102676190Y-154328571D01*
X102561905Y-154328571D01*
X102485714Y-154366667D01*
X102180952Y-154328571D02*
X101990476Y-154861905D01*
X101800000Y-154328571D02*
X101990476Y-154861905D01*
X102066667Y-155052381D01*
X102104762Y-155090476D01*
X102180952Y-155128571D01*
X101533333Y-154823810D02*
X101457143Y-154861905D01*
X101304762Y-154861905D01*
X101228571Y-154823810D01*
X101190476Y-154747619D01*
X101190476Y-154709524D01*
X101228571Y-154633333D01*
X101304762Y-154595238D01*
X101419047Y-154595238D01*
X101495238Y-154557143D01*
X101533333Y-154480952D01*
X101533333Y-154442857D01*
X101495238Y-154366667D01*
X101419047Y-154328571D01*
X101304762Y-154328571D01*
X101228571Y-154366667D01*
X100961905Y-154328571D02*
X100657143Y-154328571D01*
X100847619Y-154061905D02*
X100847619Y-154747619D01*
X100809524Y-154823810D01*
X100733333Y-154861905D01*
X100657143Y-154861905D01*
X100085714Y-154823810D02*
X100161904Y-154861905D01*
X100314285Y-154861905D01*
X100390476Y-154823810D01*
X100428571Y-154747619D01*
X100428571Y-154442857D01*
X100390476Y-154366667D01*
X100314285Y-154328571D01*
X100161904Y-154328571D01*
X100085714Y-154366667D01*
X100047619Y-154442857D01*
X100047619Y-154519048D01*
X100428571Y-154595238D01*
X99704762Y-154861905D02*
X99704762Y-154328571D01*
X99704762Y-154404762D02*
X99666667Y-154366667D01*
X99590476Y-154328571D01*
X99476190Y-154328571D01*
X99400000Y-154366667D01*
X99361905Y-154442857D01*
X99361905Y-154861905D01*
X99361905Y-154442857D02*
X99323809Y-154366667D01*
X99247619Y-154328571D01*
X99133333Y-154328571D01*
X99057143Y-154366667D01*
X99019048Y-154442857D01*
X99019048Y-154861905D01*
X98523809Y-154404762D02*
X98600000Y-154366667D01*
X98638095Y-154328571D01*
X98676190Y-154252381D01*
X98676190Y-154214286D01*
X98638095Y-154138095D01*
X98600000Y-154100000D01*
X98523809Y-154061905D01*
X98371428Y-154061905D01*
X98295238Y-154100000D01*
X98257142Y-154138095D01*
X98219047Y-154214286D01*
X98219047Y-154252381D01*
X98257142Y-154328571D01*
X98295238Y-154366667D01*
X98371428Y-154404762D01*
X98523809Y-154404762D01*
X98600000Y-154442857D01*
X98638095Y-154480952D01*
X98676190Y-154557143D01*
X98676190Y-154709524D01*
X98638095Y-154785714D01*
X98600000Y-154823810D01*
X98523809Y-154861905D01*
X98371428Y-154861905D01*
X98295238Y-154823810D01*
X98257142Y-154785714D01*
X98219047Y-154709524D01*
X98219047Y-154557143D01*
X98257142Y-154480952D01*
X98295238Y-154442857D01*
X98371428Y-154404762D01*
X97723809Y-154061905D02*
X97647618Y-154061905D01*
X97571428Y-154100000D01*
X97533333Y-154138095D01*
X97495237Y-154214286D01*
X97457142Y-154366667D01*
X97457142Y-154557143D01*
X97495237Y-154709524D01*
X97533333Y-154785714D01*
X97571428Y-154823810D01*
X97647618Y-154861905D01*
X97723809Y-154861905D01*
X97799999Y-154823810D01*
X97838095Y-154785714D01*
X97876190Y-154709524D01*
X97914285Y-154557143D01*
X97914285Y-154366667D01*
X97876190Y-154214286D01*
X97838095Y-154138095D01*
X97799999Y-154100000D01*
X97723809Y-154061905D01*
X97114285Y-154785714D02*
X97076190Y-154823810D01*
X97114285Y-154861905D01*
X97152380Y-154823810D01*
X97114285Y-154785714D01*
X97114285Y-154861905D01*
X96733333Y-154328571D02*
X96733333Y-154861905D01*
X96733333Y-154404762D02*
X96695238Y-154366667D01*
X96619047Y-154328571D01*
X96504761Y-154328571D01*
X96428571Y-154366667D01*
X96390476Y-154442857D01*
X96390476Y-154861905D01*
X95704761Y-154823810D02*
X95780951Y-154861905D01*
X95933332Y-154861905D01*
X96009523Y-154823810D01*
X96047618Y-154747619D01*
X96047618Y-154442857D01*
X96009523Y-154366667D01*
X95933332Y-154328571D01*
X95780951Y-154328571D01*
X95704761Y-154366667D01*
X95666666Y-154442857D01*
X95666666Y-154519048D01*
X96047618Y-154595238D01*
X95438095Y-154328571D02*
X95133333Y-154328571D01*
X95323809Y-154061905D02*
X95323809Y-154747619D01*
X95285714Y-154823810D01*
X95209523Y-154861905D01*
X95133333Y-154861905D01*
X102888096Y-147111905D02*
X102888096Y-146578571D01*
X102888096Y-146730952D02*
X102850001Y-146654762D01*
X102811905Y-146616667D01*
X102735715Y-146578571D01*
X102659524Y-146578571D01*
X101973810Y-147111905D02*
X102430953Y-147111905D01*
X102202382Y-147111905D02*
X102202382Y-146311905D01*
X102278572Y-146426190D01*
X102354763Y-146502381D01*
X102430953Y-146540476D01*
X101630953Y-147035714D02*
X101592858Y-147073810D01*
X101630953Y-147111905D01*
X101669048Y-147073810D01*
X101630953Y-147035714D01*
X101630953Y-147111905D01*
X101097620Y-146311905D02*
X101021429Y-146311905D01*
X100945239Y-146350000D01*
X100907144Y-146388095D01*
X100869048Y-146464286D01*
X100830953Y-146616667D01*
X100830953Y-146807143D01*
X100869048Y-146959524D01*
X100907144Y-147035714D01*
X100945239Y-147073810D01*
X101021429Y-147111905D01*
X101097620Y-147111905D01*
X101173810Y-147073810D01*
X101211906Y-147035714D01*
X101250001Y-146959524D01*
X101288096Y-146807143D01*
X101288096Y-146616667D01*
X101250001Y-146464286D01*
X101211906Y-146388095D01*
X101173810Y-146350000D01*
X101097620Y-146311905D01*
X99840477Y-147111905D02*
X99688096Y-147111905D01*
X99611905Y-147073810D01*
X99573810Y-147035714D01*
X99497619Y-146921429D01*
X99459524Y-146769048D01*
X99459524Y-146464286D01*
X99497619Y-146388095D01*
X99535715Y-146350000D01*
X99611905Y-146311905D01*
X99764286Y-146311905D01*
X99840477Y-146350000D01*
X99878572Y-146388095D01*
X99916667Y-146464286D01*
X99916667Y-146654762D01*
X99878572Y-146730952D01*
X99840477Y-146769048D01*
X99764286Y-146807143D01*
X99611905Y-146807143D01*
X99535715Y-146769048D01*
X99497619Y-146730952D01*
X99459524Y-146654762D01*
X98545238Y-146273810D02*
X99230953Y-147302381D01*
X98316667Y-146388095D02*
X98278572Y-146350000D01*
X98202381Y-146311905D01*
X98011905Y-146311905D01*
X97935715Y-146350000D01*
X97897619Y-146388095D01*
X97859524Y-146464286D01*
X97859524Y-146540476D01*
X97897619Y-146654762D01*
X98354762Y-147111905D01*
X97859524Y-147111905D01*
X97364286Y-146311905D02*
X97288095Y-146311905D01*
X97211905Y-146350000D01*
X97173810Y-146388095D01*
X97135714Y-146464286D01*
X97097619Y-146616667D01*
X97097619Y-146807143D01*
X97135714Y-146959524D01*
X97173810Y-147035714D01*
X97211905Y-147073810D01*
X97288095Y-147111905D01*
X97364286Y-147111905D01*
X97440476Y-147073810D01*
X97478572Y-147035714D01*
X97516667Y-146959524D01*
X97554762Y-146807143D01*
X97554762Y-146616667D01*
X97516667Y-146464286D01*
X97478572Y-146388095D01*
X97440476Y-146350000D01*
X97364286Y-146311905D01*
X96335714Y-147111905D02*
X96792857Y-147111905D01*
X96564286Y-147111905D02*
X96564286Y-146311905D01*
X96640476Y-146426190D01*
X96716667Y-146502381D01*
X96792857Y-146540476D01*
X95878571Y-146654762D02*
X95954762Y-146616667D01*
X95992857Y-146578571D01*
X96030952Y-146502381D01*
X96030952Y-146464286D01*
X95992857Y-146388095D01*
X95954762Y-146350000D01*
X95878571Y-146311905D01*
X95726190Y-146311905D01*
X95650000Y-146350000D01*
X95611904Y-146388095D01*
X95573809Y-146464286D01*
X95573809Y-146502381D01*
X95611904Y-146578571D01*
X95650000Y-146616667D01*
X95726190Y-146654762D01*
X95878571Y-146654762D01*
X95954762Y-146692857D01*
X95992857Y-146730952D01*
X96030952Y-146807143D01*
X96030952Y-146959524D01*
X95992857Y-147035714D01*
X95954762Y-147073810D01*
X95878571Y-147111905D01*
X95726190Y-147111905D01*
X95650000Y-147073810D01*
X95611904Y-147035714D01*
X95573809Y-146959524D01*
X95573809Y-146807143D01*
X95611904Y-146730952D01*
X95650000Y-146692857D01*
X95726190Y-146654762D01*
D12*
X114833332Y-52202381D02*
X115071427Y-52083333D01*
X115190475Y-51964286D01*
X115309523Y-51726190D01*
X115309523Y-51607143D01*
X115190475Y-51369048D01*
X115071427Y-51250000D01*
X114833332Y-51130952D01*
X114357142Y-51130952D01*
X114119046Y-51250000D01*
X113999999Y-51369048D01*
X113880951Y-51607143D01*
X113880951Y-51726190D01*
X113999999Y-51964286D01*
X114119046Y-52083333D01*
X114357142Y-52202381D01*
X114833332Y-52202381D01*
X115071427Y-52321429D01*
X115190475Y-52440476D01*
X115309523Y-52678571D01*
X115309523Y-53154762D01*
X115190475Y-53392857D01*
X115071427Y-53511905D01*
X114833332Y-53630952D01*
X114357142Y-53630952D01*
X114119046Y-53511905D01*
X113999999Y-53392857D01*
X113880951Y-53154762D01*
X113880951Y-52678571D01*
X113999999Y-52440476D01*
X114119046Y-52321429D01*
X114357142Y-52202381D01*
X111738094Y-51964286D02*
X111738094Y-53630952D01*
X112333332Y-51011905D02*
X112928571Y-52797619D01*
X111380951Y-52797619D01*
X109952380Y-51130952D02*
X109714285Y-51130952D01*
X109476190Y-51250000D01*
X109357142Y-51369048D01*
X109238095Y-51607143D01*
X109119047Y-52083333D01*
X109119047Y-52678571D01*
X109238095Y-53154762D01*
X109357142Y-53392857D01*
X109476190Y-53511905D01*
X109714285Y-53630952D01*
X109952380Y-53630952D01*
X110190476Y-53511905D01*
X110309523Y-53392857D01*
X110428571Y-53154762D01*
X110547619Y-52678571D01*
X110547619Y-52083333D01*
X110428571Y-51607143D01*
X110309523Y-51369048D01*
X110190476Y-51250000D01*
X109952380Y-51130952D01*
X106261905Y-52916667D02*
X105071428Y-52916667D01*
X106500000Y-53630952D02*
X105666666Y-51130952D01*
X104833333Y-53630952D01*
X104000000Y-53630952D02*
X104000000Y-51130952D01*
X103404762Y-51130952D01*
X103047619Y-51250000D01*
X102809524Y-51488095D01*
X102690476Y-51726190D01*
X102571428Y-52202381D01*
X102571428Y-52559524D01*
X102690476Y-53035714D01*
X102809524Y-53273810D01*
X103047619Y-53511905D01*
X103404762Y-53630952D01*
X104000000Y-53630952D01*
X101619048Y-53511905D02*
X101261905Y-53630952D01*
X100666667Y-53630952D01*
X100428571Y-53511905D01*
X100309524Y-53392857D01*
X100190476Y-53154762D01*
X100190476Y-52916667D01*
X100309524Y-52678571D01*
X100428571Y-52559524D01*
X100666667Y-52440476D01*
X101142857Y-52321429D01*
X101380952Y-52202381D01*
X101500000Y-52083333D01*
X101619048Y-51845238D01*
X101619048Y-51607143D01*
X101500000Y-51369048D01*
X101380952Y-51250000D01*
X101142857Y-51130952D01*
X100547619Y-51130952D01*
X100190476Y-51250000D01*
X97690476Y-53630952D02*
X98523810Y-52440476D01*
X99119048Y-53630952D02*
X99119048Y-51130952D01*
X98166667Y-51130952D01*
X97928572Y-51250000D01*
X97809524Y-51369048D01*
X97690476Y-51607143D01*
X97690476Y-51964286D01*
X97809524Y-52202381D01*
X97928572Y-52321429D01*
X98166667Y-52440476D01*
X99119048Y-52440476D01*
D13*
X90500000Y-75000000D02*
X102500000Y-75000000D01*
D11*
X102909524Y-76307143D02*
X102300000Y-76307143D01*
X101500000Y-76611905D02*
X101957143Y-76611905D01*
X101728572Y-76611905D02*
X101728572Y-75811905D01*
X101804762Y-75926190D01*
X101880953Y-76002381D01*
X101957143Y-76040476D01*
X101195238Y-75888095D02*
X101157143Y-75850000D01*
X101080952Y-75811905D01*
X100890476Y-75811905D01*
X100814286Y-75850000D01*
X100776190Y-75888095D01*
X100738095Y-75964286D01*
X100738095Y-76040476D01*
X100776190Y-76154762D01*
X101233333Y-76611905D01*
X100738095Y-76611905D01*
X100509524Y-75811905D02*
X100242857Y-76611905D01*
X99976190Y-75811905D01*
X105976191Y-126861905D02*
X105976191Y-126061905D01*
X105785715Y-126061905D01*
X105671429Y-126100000D01*
X105595238Y-126176190D01*
X105557143Y-126252381D01*
X105519048Y-126404762D01*
X105519048Y-126519048D01*
X105557143Y-126671429D01*
X105595238Y-126747619D01*
X105671429Y-126823810D01*
X105785715Y-126861905D01*
X105976191Y-126861905D01*
X105176191Y-126442857D02*
X104909524Y-126442857D01*
X104795238Y-126861905D02*
X105176191Y-126861905D01*
X105176191Y-126061905D01*
X104795238Y-126061905D01*
X103995238Y-126785714D02*
X104033333Y-126823810D01*
X104147619Y-126861905D01*
X104223809Y-126861905D01*
X104338095Y-126823810D01*
X104414286Y-126747619D01*
X104452381Y-126671429D01*
X104490476Y-126519048D01*
X104490476Y-126404762D01*
X104452381Y-126252381D01*
X104414286Y-126176190D01*
X104338095Y-126100000D01*
X104223809Y-126061905D01*
X104147619Y-126061905D01*
X104033333Y-126100000D01*
X103995238Y-126138095D01*
X103080952Y-126023810D02*
X103766667Y-127052381D01*
X102357143Y-126861905D02*
X102623810Y-126480952D01*
X102814286Y-126861905D02*
X102814286Y-126061905D01*
X102509524Y-126061905D01*
X102433333Y-126100000D01*
X102395238Y-126138095D01*
X102357143Y-126214286D01*
X102357143Y-126328571D01*
X102395238Y-126404762D01*
X102433333Y-126442857D01*
X102509524Y-126480952D01*
X102814286Y-126480952D01*
X102014286Y-126442857D02*
X101747619Y-126442857D01*
X101633333Y-126861905D02*
X102014286Y-126861905D01*
X102014286Y-126061905D01*
X101633333Y-126061905D01*
X100909523Y-126861905D02*
X101290476Y-126861905D01*
X101290476Y-126061905D01*
X115442857Y-126633333D02*
X115061905Y-126633333D01*
X115519048Y-126861905D02*
X115252381Y-126061905D01*
X114985714Y-126861905D01*
X114833334Y-126061905D02*
X114376191Y-126061905D01*
X114604762Y-126861905D02*
X114604762Y-126061905D01*
X114223810Y-126061905D02*
X113766667Y-126061905D01*
X113995238Y-126861905D02*
X113995238Y-126061905D01*
X113538095Y-126633333D02*
X113157143Y-126633333D01*
X113614286Y-126861905D02*
X113347619Y-126061905D01*
X113080952Y-126861905D01*
X112357143Y-126785714D02*
X112395238Y-126823810D01*
X112509524Y-126861905D01*
X112585714Y-126861905D01*
X112700000Y-126823810D01*
X112776191Y-126747619D01*
X112814286Y-126671429D01*
X112852381Y-126519048D01*
X112852381Y-126404762D01*
X112814286Y-126252381D01*
X112776191Y-126176190D01*
X112700000Y-126100000D01*
X112585714Y-126061905D01*
X112509524Y-126061905D01*
X112395238Y-126100000D01*
X112357143Y-126138095D01*
X112014286Y-126861905D02*
X112014286Y-126061905D01*
X111557143Y-126861905D02*
X111900000Y-126404762D01*
X111557143Y-126061905D02*
X112014286Y-126519048D01*
D10*
X93850000Y-61050000D02*
X92850000Y-61050000D01*
X90650000Y-62450000D02*
X90650000Y-61050000D01*
X93850000Y-61050000D02*
X93850000Y-62450000D01*
X93850000Y-62450000D02*
X92850000Y-62450000D01*
X91650000Y-61050000D02*
X90650000Y-61050000D01*
X91650000Y-62450000D02*
X90650000Y-62450000D01*
X90350000Y-135300000D02*
X89350000Y-135300000D01*
X87150000Y-136700000D02*
X87150000Y-135300000D01*
X90350000Y-135300000D02*
X90350000Y-136700000D01*
X90350000Y-136700000D02*
X89350000Y-136700000D01*
X88150000Y-135300000D02*
X87150000Y-135300000D01*
X88150000Y-136700000D02*
X87150000Y-136700000D01*
X104050000Y-96650000D02*
X104050000Y-97650000D01*
X105450000Y-99850000D02*
X104050000Y-99850000D01*
X104050000Y-96650000D02*
X105450000Y-96650000D01*
X105450000Y-96650000D02*
X105450000Y-97650000D01*
X104050000Y-98850000D02*
X104050000Y-99850000D01*
X105450000Y-98850000D02*
X105450000Y-99850000D01*
X114450000Y-107100000D02*
X114450000Y-106100000D01*
X113050000Y-103900000D02*
X114450000Y-103900000D01*
X114450000Y-107100000D02*
X113050000Y-107100000D01*
X113050000Y-107100000D02*
X113050000Y-106100000D01*
X114450000Y-104900000D02*
X114450000Y-103900000D01*
X113050000Y-104900000D02*
X113050000Y-103900000D01*
X95900000Y-142950000D02*
X96900000Y-142950000D01*
X99100000Y-141550000D02*
X99100000Y-142950000D01*
X95900000Y-142950000D02*
X95900000Y-141550000D01*
X95900000Y-141550000D02*
X96900000Y-141550000D01*
X98100000Y-142950000D02*
X99100000Y-142950000D01*
X98100000Y-141550000D02*
X99100000Y-141550000D01*
X82800000Y-147650000D02*
X82800000Y-148650000D01*
X84200000Y-150850000D02*
X82800000Y-150850000D01*
X82800000Y-147650000D02*
X84200000Y-147650000D01*
X84200000Y-147650000D02*
X84200000Y-148650000D01*
X82800000Y-149850000D02*
X82800000Y-150850000D01*
X84200000Y-149850000D02*
X84200000Y-150850000D01*
D11*
X84214000Y-65885000D02*
X84214000Y-64488000D01*
X84341000Y-66139000D02*
X84341000Y-64361000D01*
X84468000Y-66520000D02*
X84468000Y-63980000D01*
X84595000Y-63853000D02*
X84595000Y-66647000D01*
X84722000Y-66774000D02*
X84722000Y-63726000D01*
X84849000Y-63599000D02*
X84849000Y-66901000D01*
X84976000Y-67028000D02*
X84976000Y-63472000D01*
X83833000Y-67917000D02*
X88405000Y-67917000D01*
X88405000Y-67917000D02*
X89167000Y-67155000D01*
X89167000Y-67155000D02*
X89167000Y-63345000D01*
X89167000Y-63345000D02*
X88405000Y-62583000D01*
X88405000Y-62583000D02*
X83833000Y-62583000D01*
X83833000Y-62583000D02*
X83833000Y-67917000D01*
X88659000Y-65250000D02*
X87897000Y-65250000D01*
X88278000Y-65631000D02*
X88278000Y-64869000D01*
X88913000Y-65250000D02*
G75*
G03X88913000Y-65250000I-2413000J0D01*
G01*
X110464000Y-76635000D02*
X110464000Y-75238000D01*
X110591000Y-76889000D02*
X110591000Y-75111000D01*
X110718000Y-77270000D02*
X110718000Y-74730000D01*
X110845000Y-74603000D02*
X110845000Y-77397000D01*
X110972000Y-77524000D02*
X110972000Y-74476000D01*
X111099000Y-74349000D02*
X111099000Y-77651000D01*
X111226000Y-77778000D02*
X111226000Y-74222000D01*
X110083000Y-78667000D02*
X114655000Y-78667000D01*
X114655000Y-78667000D02*
X115417000Y-77905000D01*
X115417000Y-77905000D02*
X115417000Y-74095000D01*
X115417000Y-74095000D02*
X114655000Y-73333000D01*
X114655000Y-73333000D02*
X110083000Y-73333000D01*
X110083000Y-73333000D02*
X110083000Y-78667000D01*
X114909000Y-76000000D02*
X114147000Y-76000000D01*
X114528000Y-76381000D02*
X114528000Y-75619000D01*
X115163000Y-76000000D02*
G75*
G03X115163000Y-76000000I-2413000J0D01*
G01*
D14*
X82738000Y-141711200D02*
X82738000Y-142727200D01*
X82738000Y-142727200D02*
X84262000Y-142727200D01*
X84262000Y-142727200D02*
X84262000Y-141711200D01*
X84262000Y-140288800D02*
X84262000Y-139272800D01*
X84262000Y-139272800D02*
X82738000Y-139272800D01*
X82738000Y-139272800D02*
X82738000Y-140288800D01*
D10*
X88400000Y-117950000D02*
X89400000Y-117950000D01*
X91600000Y-116550000D02*
X91600000Y-117950000D01*
X88400000Y-117950000D02*
X88400000Y-116550000D01*
X88400000Y-116550000D02*
X89400000Y-116550000D01*
X90600000Y-117950000D02*
X91600000Y-117950000D01*
X90600000Y-116550000D02*
X91600000Y-116550000D01*
X91600000Y-119050000D02*
X90600000Y-119050000D01*
X88400000Y-120450000D02*
X88400000Y-119050000D01*
X91600000Y-119050000D02*
X91600000Y-120450000D01*
X91600000Y-120450000D02*
X90600000Y-120450000D01*
X89400000Y-119050000D02*
X88400000Y-119050000D01*
X89400000Y-120450000D02*
X88400000Y-120450000D01*
X113100000Y-118050000D02*
X112100000Y-118050000D01*
X109900000Y-119450000D02*
X109900000Y-118050000D01*
X113100000Y-118050000D02*
X113100000Y-119450000D01*
X113100000Y-119450000D02*
X112100000Y-119450000D01*
X110900000Y-118050000D02*
X109900000Y-118050000D01*
X110900000Y-119450000D02*
X109900000Y-119450000D01*
X100150000Y-117950000D02*
X101150000Y-117950000D01*
X103350000Y-116550000D02*
X103350000Y-117950000D01*
X100150000Y-117950000D02*
X100150000Y-116550000D01*
X100150000Y-116550000D02*
X101150000Y-116550000D01*
X102350000Y-117950000D02*
X103350000Y-117950000D01*
X102350000Y-116550000D02*
X103350000Y-116550000D01*
X87800000Y-92150000D02*
X87800000Y-93150000D01*
X89200000Y-95350000D02*
X87800000Y-95350000D01*
X87800000Y-92150000D02*
X89200000Y-92150000D01*
X89200000Y-92150000D02*
X89200000Y-93150000D01*
X87800000Y-94350000D02*
X87800000Y-95350000D01*
X89200000Y-94350000D02*
X89200000Y-95350000D01*
D15*
X94160340Y-58260600D02*
X96339660Y-58260600D01*
X94160340Y-53739400D02*
X96339660Y-53739400D01*
X93350080Y-57348740D02*
X93350080Y-56797560D01*
X97149920Y-57348740D02*
X97149920Y-56797560D01*
D16*
X97155000Y-58260600D02*
X97155000Y-53739400D01*
X93345000Y-58260600D02*
X93345000Y-53739400D01*
X93345000Y-58260600D02*
X97155000Y-58260600D01*
X93345000Y-53739400D02*
X97155000Y-53739400D01*
D17*
X96248220Y-55609500D02*
X95250000Y-56628040D01*
X95250000Y-56628040D02*
X94251780Y-55609500D01*
X94251780Y-55609500D02*
X96248220Y-55609500D01*
D15*
X107339660Y-71489400D02*
X105160340Y-71489400D01*
X107339660Y-76010600D02*
X105160340Y-76010600D01*
X108149920Y-72401260D02*
X108149920Y-72952440D01*
X104350080Y-72401260D02*
X104350080Y-72952440D01*
D16*
X104345000Y-71489400D02*
X104345000Y-76010600D01*
X108155000Y-71489400D02*
X108155000Y-76010600D01*
X108155000Y-71489400D02*
X104345000Y-71489400D01*
X108155000Y-76010600D02*
X104345000Y-76010600D01*
D17*
X105251780Y-74140500D02*
X106250000Y-73121960D01*
X106250000Y-73121960D02*
X107248220Y-74140500D01*
X107248220Y-74140500D02*
X105251780Y-74140500D01*
D14*
X86012000Y-95020000D02*
X86012000Y-92416500D01*
X86012000Y-92416500D02*
X84488000Y-92416500D01*
X84488000Y-92416500D02*
X84488000Y-95020000D01*
X84488000Y-95020000D02*
X86012000Y-95020000D01*
D11*
X92742000Y-141742000D02*
X92742000Y-142758000D01*
X93758000Y-141742000D02*
X93758000Y-142758000D01*
X93758000Y-142758000D02*
X92742000Y-142250000D01*
X92742000Y-142250000D02*
X93758000Y-141742000D01*
D14*
X96961200Y-62512000D02*
X97977200Y-62512000D01*
X97977200Y-62512000D02*
X97977200Y-60988000D01*
X97977200Y-60988000D02*
X96961200Y-60988000D01*
X95538800Y-60988000D02*
X94522800Y-60988000D01*
X94522800Y-60988000D02*
X94522800Y-62512000D01*
X94522800Y-62512000D02*
X95538800Y-62512000D01*
X95788800Y-77488000D02*
X94772800Y-77488000D01*
X94772800Y-77488000D02*
X94772800Y-79012000D01*
X94772800Y-79012000D02*
X95788800Y-79012000D01*
X97211200Y-79012000D02*
X98227200Y-79012000D01*
X98227200Y-79012000D02*
X98227200Y-77488000D01*
X98227200Y-77488000D02*
X97211200Y-77488000D01*
D18*
X93920000Y-63510000D02*
X99120000Y-63510000D01*
X93920000Y-73730000D02*
X93920000Y-63510000D01*
X99120000Y-76330000D02*
X99120000Y-63510000D01*
X93920000Y-73730000D02*
X96520000Y-73730000D01*
X96520000Y-73730000D02*
X96520000Y-76330000D01*
X96520000Y-76330000D02*
X99120000Y-76330000D01*
X93920000Y-75000000D02*
X93920000Y-76330000D01*
X93920000Y-76330000D02*
X95250000Y-76330000D01*
D14*
X85230000Y-141262000D02*
X87833500Y-141262000D01*
X87833500Y-141262000D02*
X87833500Y-139738000D01*
X87833500Y-139738000D02*
X85230000Y-139738000D01*
X85230000Y-139738000D02*
X85230000Y-141262000D01*
X87262000Y-149520000D02*
X87262000Y-146916500D01*
X87262000Y-146916500D02*
X85738000Y-146916500D01*
X85738000Y-146916500D02*
X85738000Y-149520000D01*
X85738000Y-149520000D02*
X87262000Y-149520000D01*
X88988000Y-123730000D02*
X88988000Y-126333500D01*
X88988000Y-126333500D02*
X90512000Y-126333500D01*
X90512000Y-126333500D02*
X90512000Y-123730000D01*
X90512000Y-123730000D02*
X88988000Y-123730000D01*
D15*
X108797560Y-119349820D02*
X108497840Y-119349820D01*
X108497840Y-119349820D02*
X108497840Y-118849440D01*
X108797560Y-118849440D02*
X108497840Y-118849440D01*
X108797560Y-119349820D02*
X108797560Y-118849440D01*
X108149860Y-119349820D02*
X107850140Y-119349820D01*
X107850140Y-119349820D02*
X107850140Y-118849440D01*
X108149860Y-118849440D02*
X107850140Y-118849440D01*
X108149860Y-119349820D02*
X108149860Y-118849440D01*
X107502160Y-119349820D02*
X107202440Y-119349820D01*
X107202440Y-119349820D02*
X107202440Y-118849440D01*
X107502160Y-118849440D02*
X107202440Y-118849440D01*
X107502160Y-119349820D02*
X107502160Y-118849440D01*
X107502160Y-117650560D02*
X107202440Y-117650560D01*
X107202440Y-117650560D02*
X107202440Y-117150180D01*
X107502160Y-117150180D02*
X107202440Y-117150180D01*
X107502160Y-117650560D02*
X107502160Y-117150180D01*
X108149860Y-117650560D02*
X107850140Y-117650560D01*
X107850140Y-117650560D02*
X107850140Y-117150180D01*
X108149860Y-117150180D02*
X107850140Y-117150180D01*
X108149860Y-117650560D02*
X108149860Y-117150180D01*
X108797560Y-117650560D02*
X108497840Y-117650560D01*
X108497840Y-117650560D02*
X108497840Y-117150180D01*
X108797560Y-117150180D02*
X108497840Y-117150180D01*
X108797560Y-117650560D02*
X108797560Y-117150180D01*
D17*
X108998220Y-117701360D02*
X107001780Y-117701360D01*
X107001780Y-117701360D02*
X107001780Y-118798640D01*
X107001780Y-118798640D02*
X108998220Y-118798640D01*
X108998220Y-118798640D02*
X108998220Y-117701360D01*
D19*
X108802671Y-118498920D02*
G75*
G03X108802671Y-118498920I-104171J0D01*
G01*
D15*
X105547560Y-119349820D02*
X105247840Y-119349820D01*
X105247840Y-119349820D02*
X105247840Y-118849440D01*
X105547560Y-118849440D02*
X105247840Y-118849440D01*
X105547560Y-119349820D02*
X105547560Y-118849440D01*
X104899860Y-119349820D02*
X104600140Y-119349820D01*
X104600140Y-119349820D02*
X104600140Y-118849440D01*
X104899860Y-118849440D02*
X104600140Y-118849440D01*
X104899860Y-119349820D02*
X104899860Y-118849440D01*
X104252160Y-119349820D02*
X103952440Y-119349820D01*
X103952440Y-119349820D02*
X103952440Y-118849440D01*
X104252160Y-118849440D02*
X103952440Y-118849440D01*
X104252160Y-119349820D02*
X104252160Y-118849440D01*
X104252160Y-117650560D02*
X103952440Y-117650560D01*
X103952440Y-117650560D02*
X103952440Y-117150180D01*
X104252160Y-117150180D02*
X103952440Y-117150180D01*
X104252160Y-117650560D02*
X104252160Y-117150180D01*
X104899860Y-117650560D02*
X104600140Y-117650560D01*
X104600140Y-117650560D02*
X104600140Y-117150180D01*
X104899860Y-117150180D02*
X104600140Y-117150180D01*
X104899860Y-117650560D02*
X104899860Y-117150180D01*
X105547560Y-117650560D02*
X105247840Y-117650560D01*
X105247840Y-117650560D02*
X105247840Y-117150180D01*
X105547560Y-117150180D02*
X105247840Y-117150180D01*
X105547560Y-117650560D02*
X105547560Y-117150180D01*
D17*
X105748220Y-117701360D02*
X103751780Y-117701360D01*
X103751780Y-117701360D02*
X103751780Y-118798640D01*
X103751780Y-118798640D02*
X105748220Y-118798640D01*
X105748220Y-118798640D02*
X105748220Y-117701360D01*
D19*
X105552671Y-118498920D02*
G75*
G03X105552671Y-118498920I-104171J0D01*
G01*
D10*
X82200000Y-146100000D02*
X82200000Y-145100000D01*
X80800000Y-142900000D02*
X82200000Y-142900000D01*
X82200000Y-146100000D02*
X80800000Y-146100000D01*
X80800000Y-146100000D02*
X80800000Y-145100000D01*
X82200000Y-143900000D02*
X82200000Y-142900000D01*
X80800000Y-143900000D02*
X80800000Y-142900000D01*
X91950000Y-146350000D02*
X91950000Y-145350000D01*
X90550000Y-143150000D02*
X91950000Y-143150000D01*
X91950000Y-146350000D02*
X90550000Y-146350000D01*
X90550000Y-146350000D02*
X90550000Y-145350000D01*
X91950000Y-144150000D02*
X91950000Y-143150000D01*
X90550000Y-144150000D02*
X90550000Y-143150000D01*
X87150000Y-138200000D02*
X88150000Y-138200000D01*
X90350000Y-136800000D02*
X90350000Y-138200000D01*
X87150000Y-138200000D02*
X87150000Y-136800000D01*
X87150000Y-136800000D02*
X88150000Y-136800000D01*
X89350000Y-138200000D02*
X90350000Y-138200000D01*
X89350000Y-136800000D02*
X90350000Y-136800000D01*
X87300000Y-143150000D02*
X87300000Y-144150000D01*
X88700000Y-146350000D02*
X87300000Y-146350000D01*
X87300000Y-143150000D02*
X88700000Y-143150000D01*
X88700000Y-143150000D02*
X88700000Y-144150000D01*
X87300000Y-145350000D02*
X87300000Y-146350000D01*
X88700000Y-145350000D02*
X88700000Y-146350000D01*
X87050000Y-150150000D02*
X87050000Y-151150000D01*
X88450000Y-153350000D02*
X87050000Y-153350000D01*
X87050000Y-150150000D02*
X88450000Y-150150000D01*
X88450000Y-150150000D02*
X88450000Y-151150000D01*
X87050000Y-152350000D02*
X87050000Y-153350000D01*
X88450000Y-152350000D02*
X88450000Y-153350000D01*
X100700000Y-121600000D02*
X100700000Y-120600000D01*
X99300000Y-118400000D02*
X100700000Y-118400000D01*
X100700000Y-121600000D02*
X99300000Y-121600000D01*
X99300000Y-121600000D02*
X99300000Y-120600000D01*
X100700000Y-119400000D02*
X100700000Y-118400000D01*
X99300000Y-119400000D02*
X99300000Y-118400000D01*
X89050000Y-143150000D02*
X89050000Y-144150000D01*
X90450000Y-146350000D02*
X89050000Y-146350000D01*
X89050000Y-143150000D02*
X90450000Y-143150000D01*
X90450000Y-143150000D02*
X90450000Y-144150000D01*
X89050000Y-145350000D02*
X89050000Y-146350000D01*
X90450000Y-145350000D02*
X90450000Y-146350000D01*
X80800000Y-139400000D02*
X80800000Y-140400000D01*
X82200000Y-142600000D02*
X80800000Y-142600000D01*
X80800000Y-139400000D02*
X82200000Y-139400000D01*
X82200000Y-139400000D02*
X82200000Y-140400000D01*
X80800000Y-141600000D02*
X80800000Y-142600000D01*
X82200000Y-141600000D02*
X82200000Y-142600000D01*
X80650000Y-137950000D02*
X81650000Y-137950000D01*
X83850000Y-136550000D02*
X83850000Y-137950000D01*
X80650000Y-137950000D02*
X80650000Y-136550000D01*
X80650000Y-136550000D02*
X81650000Y-136550000D01*
X82850000Y-137950000D02*
X83850000Y-137950000D01*
X82850000Y-136550000D02*
X83850000Y-136550000D01*
X88400000Y-121950000D02*
X89400000Y-121950000D01*
X91600000Y-120550000D02*
X91600000Y-121950000D01*
X88400000Y-121950000D02*
X88400000Y-120550000D01*
X88400000Y-120550000D02*
X89400000Y-120550000D01*
X90600000Y-121950000D02*
X91600000Y-121950000D01*
X90600000Y-120550000D02*
X91600000Y-120550000D01*
X88400000Y-116450000D02*
X89400000Y-116450000D01*
X91600000Y-115050000D02*
X91600000Y-116450000D01*
X88400000Y-116450000D02*
X88400000Y-115050000D01*
X88400000Y-115050000D02*
X89400000Y-115050000D01*
X90600000Y-116450000D02*
X91600000Y-116450000D01*
X90600000Y-115050000D02*
X91600000Y-115050000D01*
X115050000Y-116650000D02*
X115050000Y-117650000D01*
X116450000Y-119850000D02*
X115050000Y-119850000D01*
X115050000Y-116650000D02*
X116450000Y-116650000D01*
X116450000Y-116650000D02*
X116450000Y-117650000D01*
X115050000Y-118850000D02*
X115050000Y-119850000D01*
X116450000Y-118850000D02*
X116450000Y-119850000D01*
X100700000Y-125100000D02*
X100700000Y-124100000D01*
X99300000Y-121900000D02*
X100700000Y-121900000D01*
X100700000Y-125100000D02*
X99300000Y-125100000D01*
X99300000Y-125100000D02*
X99300000Y-124100000D01*
X100700000Y-122900000D02*
X100700000Y-121900000D01*
X99300000Y-122900000D02*
X99300000Y-121900000D01*
X106450000Y-123850000D02*
X106450000Y-122850000D01*
X105050000Y-120650000D02*
X106450000Y-120650000D01*
X106450000Y-123850000D02*
X105050000Y-123850000D01*
X105050000Y-123850000D02*
X105050000Y-122850000D01*
X106450000Y-121650000D02*
X106450000Y-120650000D01*
X105050000Y-121650000D02*
X105050000Y-120650000D01*
X107950000Y-123850000D02*
X107950000Y-122850000D01*
X106550000Y-120650000D02*
X107950000Y-120650000D01*
X107950000Y-123850000D02*
X106550000Y-123850000D01*
X106550000Y-123850000D02*
X106550000Y-122850000D01*
X107950000Y-121650000D02*
X107950000Y-120650000D01*
X106550000Y-121650000D02*
X106550000Y-120650000D01*
X110950000Y-123850000D02*
X110950000Y-122850000D01*
X109550000Y-120650000D02*
X110950000Y-120650000D01*
X110950000Y-123850000D02*
X109550000Y-123850000D01*
X109550000Y-123850000D02*
X109550000Y-122850000D01*
X110950000Y-121650000D02*
X110950000Y-120650000D01*
X109550000Y-121650000D02*
X109550000Y-120650000D01*
X109450000Y-123850000D02*
X109450000Y-122850000D01*
X108050000Y-120650000D02*
X109450000Y-120650000D01*
X109450000Y-123850000D02*
X108050000Y-123850000D01*
X108050000Y-123850000D02*
X108050000Y-122850000D01*
X109450000Y-121650000D02*
X109450000Y-120650000D01*
X108050000Y-121650000D02*
X108050000Y-120650000D01*
X109150000Y-109700000D02*
X110150000Y-109700000D01*
X112350000Y-108300000D02*
X112350000Y-109700000D01*
X109150000Y-109700000D02*
X109150000Y-108300000D01*
X109150000Y-108300000D02*
X110150000Y-108300000D01*
X111350000Y-109700000D02*
X112350000Y-109700000D01*
X111350000Y-108300000D02*
X112350000Y-108300000D01*
X113100000Y-116550000D02*
X112100000Y-116550000D01*
X109900000Y-117950000D02*
X109900000Y-116550000D01*
X113100000Y-116550000D02*
X113100000Y-117950000D01*
X113100000Y-117950000D02*
X112100000Y-117950000D01*
X110900000Y-116550000D02*
X109900000Y-116550000D01*
X110900000Y-117950000D02*
X109900000Y-117950000D01*
X94900000Y-107200000D02*
X95900000Y-107200000D01*
X98100000Y-105800000D02*
X98100000Y-107200000D01*
X94900000Y-107200000D02*
X94900000Y-105800000D01*
X94900000Y-105800000D02*
X95900000Y-105800000D01*
X97100000Y-107200000D02*
X98100000Y-107200000D01*
X97100000Y-105800000D02*
X98100000Y-105800000D01*
X94900000Y-103200000D02*
X95900000Y-103200000D01*
X98100000Y-101800000D02*
X98100000Y-103200000D01*
X94900000Y-103200000D02*
X94900000Y-101800000D01*
X94900000Y-101800000D02*
X95900000Y-101800000D01*
X97100000Y-103200000D02*
X98100000Y-103200000D01*
X97100000Y-101800000D02*
X98100000Y-101800000D01*
X112350000Y-100800000D02*
X111350000Y-100800000D01*
X109150000Y-102200000D02*
X109150000Y-100800000D01*
X112350000Y-100800000D02*
X112350000Y-102200000D01*
X112350000Y-102200000D02*
X111350000Y-102200000D01*
X110150000Y-100800000D02*
X109150000Y-100800000D01*
X110150000Y-102200000D02*
X109150000Y-102200000D01*
X105800000Y-96650000D02*
X105800000Y-97650000D01*
X107200000Y-99850000D02*
X105800000Y-99850000D01*
X105800000Y-96650000D02*
X107200000Y-96650000D01*
X107200000Y-96650000D02*
X107200000Y-97650000D01*
X105800000Y-98850000D02*
X105800000Y-99850000D01*
X107200000Y-98850000D02*
X107200000Y-99850000D01*
X94900000Y-101700000D02*
X95900000Y-101700000D01*
X98100000Y-100300000D02*
X98100000Y-101700000D01*
X94900000Y-101700000D02*
X94900000Y-100300000D01*
X94900000Y-100300000D02*
X95900000Y-100300000D01*
X97100000Y-101700000D02*
X98100000Y-101700000D01*
X97100000Y-100300000D02*
X98100000Y-100300000D01*
X98100000Y-107300000D02*
X97100000Y-107300000D01*
X94900000Y-108700000D02*
X94900000Y-107300000D01*
X98100000Y-107300000D02*
X98100000Y-108700000D01*
X98100000Y-108700000D02*
X97100000Y-108700000D01*
X95900000Y-107300000D02*
X94900000Y-107300000D01*
X95900000Y-108700000D02*
X94900000Y-108700000D01*
X108950000Y-99850000D02*
X108950000Y-98850000D01*
X107550000Y-96650000D02*
X108950000Y-96650000D01*
X108950000Y-99850000D02*
X107550000Y-99850000D01*
X107550000Y-99850000D02*
X107550000Y-98850000D01*
X108950000Y-97650000D02*
X108950000Y-96650000D01*
X107550000Y-97650000D02*
X107550000Y-96650000D01*
X98100000Y-104300000D02*
X97100000Y-104300000D01*
X94900000Y-105700000D02*
X94900000Y-104300000D01*
X98100000Y-104300000D02*
X98100000Y-105700000D01*
X98100000Y-105700000D02*
X97100000Y-105700000D01*
X95900000Y-104300000D02*
X94900000Y-104300000D01*
X95900000Y-105700000D02*
X94900000Y-105700000D01*
X102850000Y-141550000D02*
X101850000Y-141550000D01*
X99650000Y-142950000D02*
X99650000Y-141550000D01*
X102850000Y-141550000D02*
X102850000Y-142950000D01*
X102850000Y-142950000D02*
X101850000Y-142950000D01*
X100650000Y-141550000D02*
X99650000Y-141550000D01*
X100650000Y-142950000D02*
X99650000Y-142950000D01*
X100550000Y-136650000D02*
X100550000Y-137650000D01*
X101950000Y-139850000D02*
X100550000Y-139850000D01*
X100550000Y-136650000D02*
X101950000Y-136650000D01*
X101950000Y-136650000D02*
X101950000Y-137650000D01*
X100550000Y-138850000D02*
X100550000Y-139850000D01*
X101950000Y-138850000D02*
X101950000Y-139850000D01*
X89100000Y-90300000D02*
X88100000Y-90300000D01*
X85900000Y-91700000D02*
X85900000Y-90300000D01*
X89100000Y-90300000D02*
X89100000Y-91700000D01*
X89100000Y-91700000D02*
X88100000Y-91700000D01*
X86900000Y-90300000D02*
X85900000Y-90300000D01*
X86900000Y-91700000D02*
X85900000Y-91700000D01*
X96850000Y-133800000D02*
X95850000Y-133800000D01*
X93650000Y-135200000D02*
X93650000Y-133800000D01*
X96850000Y-133800000D02*
X96850000Y-135200000D01*
X96850000Y-135200000D02*
X95850000Y-135200000D01*
X94650000Y-133800000D02*
X93650000Y-133800000D01*
X94650000Y-135200000D02*
X93650000Y-135200000D01*
X93650000Y-133700000D02*
X94650000Y-133700000D01*
X96850000Y-132300000D02*
X96850000Y-133700000D01*
X93650000Y-133700000D02*
X93650000Y-132300000D01*
X93650000Y-132300000D02*
X94650000Y-132300000D01*
X95850000Y-133700000D02*
X96850000Y-133700000D01*
X95850000Y-132300000D02*
X96850000Y-132300000D01*
X96900000Y-135200000D02*
X97900000Y-135200000D01*
X100100000Y-133800000D02*
X100100000Y-135200000D01*
X96900000Y-135200000D02*
X96900000Y-133800000D01*
X96900000Y-133800000D02*
X97900000Y-133800000D01*
X99100000Y-135200000D02*
X100100000Y-135200000D01*
X99100000Y-133800000D02*
X100100000Y-133800000D01*
X100100000Y-135300000D02*
X99100000Y-135300000D01*
X96900000Y-136700000D02*
X96900000Y-135300000D01*
X100100000Y-135300000D02*
X100100000Y-136700000D01*
X100100000Y-136700000D02*
X99100000Y-136700000D01*
X97900000Y-135300000D02*
X96900000Y-135300000D01*
X97900000Y-136700000D02*
X96900000Y-136700000D01*
X110350000Y-152300000D02*
X109350000Y-152300000D01*
X107150000Y-153700000D02*
X107150000Y-152300000D01*
X110350000Y-152300000D02*
X110350000Y-153700000D01*
X110350000Y-153700000D02*
X109350000Y-153700000D01*
X108150000Y-152300000D02*
X107150000Y-152300000D01*
X108150000Y-153700000D02*
X107150000Y-153700000D01*
D11*
X103250000Y-124250000D02*
X103250000Y-123500000D01*
X103250000Y-123500000D02*
X104000000Y-123500000D01*
X104000000Y-123000000D02*
X103250000Y-123000000D01*
X103250000Y-123000000D02*
X103250000Y-122250000D01*
X102000000Y-123000000D02*
X102750000Y-123000000D01*
X102750000Y-123000000D02*
X102750000Y-122250000D01*
X102750000Y-124250000D02*
X102750000Y-123500000D01*
X102750000Y-123500000D02*
X102000000Y-123500000D01*
X102750000Y-122250000D02*
X103250000Y-122250000D01*
X102750000Y-124250000D02*
X103250000Y-124250000D01*
X104000000Y-123500000D02*
X104000000Y-123000000D01*
X102000000Y-123500000D02*
X102000000Y-123000000D01*
X101500000Y-121350000D02*
X101500000Y-122250000D01*
X101500000Y-121350000D02*
X104500000Y-121350000D01*
X104500000Y-121350000D02*
X104500000Y-122250000D01*
X101500000Y-125150000D02*
X101500000Y-124350000D01*
X101500000Y-125150000D02*
X104500000Y-125150000D01*
X104500000Y-125150000D02*
X104500000Y-124250000D01*
X104802776Y-123250000D02*
G75*
G03X104802776Y-123250000I-1802776J0D01*
G01*
X113250000Y-121750000D02*
X113250000Y-122500000D01*
X113250000Y-122500000D02*
X112500000Y-122500000D01*
X112500000Y-123000000D02*
X113250000Y-123000000D01*
X113250000Y-123000000D02*
X113250000Y-123750000D01*
X114500000Y-123000000D02*
X113750000Y-123000000D01*
X113750000Y-123000000D02*
X113750000Y-123750000D01*
X113750000Y-121750000D02*
X113750000Y-122500000D01*
X113750000Y-122500000D02*
X114500000Y-122500000D01*
X113750000Y-123750000D02*
X113250000Y-123750000D01*
X113750000Y-121750000D02*
X113250000Y-121750000D01*
X112500000Y-122500000D02*
X112500000Y-123000000D01*
X114500000Y-122500000D02*
X114500000Y-123000000D01*
X115000000Y-124650000D02*
X115000000Y-123750000D01*
X115000000Y-124650000D02*
X112000000Y-124650000D01*
X112000000Y-124650000D02*
X112000000Y-123750000D01*
X115000000Y-120850000D02*
X115000000Y-121650000D01*
X115000000Y-120850000D02*
X112000000Y-120850000D01*
X112000000Y-120850000D02*
X112000000Y-121750000D01*
X115302776Y-122750000D02*
G75*
G03X115302776Y-122750000I-1802776J0D01*
G01*
X93100000Y-90100000D02*
X95900000Y-90100000D01*
X93100000Y-91900000D02*
X95900000Y-91900000D01*
X95900000Y-91900000D02*
X95900000Y-90100000D01*
X93100000Y-90100000D02*
X93100000Y-91900000D01*
X98000000Y-127000000D02*
G75*
G03X98000000Y-127000000I-250000J0D01*
G01*
X93025000Y-127450000D02*
X93025000Y-123050000D01*
X98550000Y-129025000D02*
X98550000Y-123050000D01*
X95853553Y-118000000D02*
G75*
G03X95853553Y-118000000I-353553J0D01*
G01*
X96125000Y-118825000D02*
X95925000Y-118825000D01*
X96125000Y-114175000D02*
X95925000Y-114175000D01*
X92875000Y-114175000D02*
X93075000Y-114175000D01*
X92875000Y-118825000D02*
X93075000Y-118825000D01*
X96125000Y-118825000D02*
X96125000Y-114175000D01*
X92875000Y-118825000D02*
X92875000Y-114175000D01*
X95925000Y-118825000D02*
X95925000Y-120175000D01*
X108375000Y-108575000D02*
X108250000Y-108575000D01*
X108375000Y-103925000D02*
X108150000Y-103925000D01*
X103125000Y-103925000D02*
X103350000Y-103925000D01*
X103125000Y-108575000D02*
X103350000Y-108575000D01*
X108375000Y-108575000D02*
X108375000Y-103925000D01*
X103125000Y-108575000D02*
X103125000Y-103925000D01*
X108250000Y-108575000D02*
X108250000Y-109925000D01*
X96853553Y-138000000D02*
G75*
G03X96853553Y-138000000I-353553J0D01*
G01*
X97325000Y-137375000D02*
X97325000Y-137575000D01*
X92675000Y-137375000D02*
X92675000Y-137575000D01*
X92675000Y-140625000D02*
X92675000Y-140425000D01*
X97325000Y-140625000D02*
X97325000Y-140425000D01*
X97325000Y-137375000D02*
X92675000Y-137375000D01*
X97325000Y-140625000D02*
X92675000Y-140625000D01*
X97325000Y-137575000D02*
X98675000Y-137575000D01*
D10*
X91600000Y-114100000D02*
X91600000Y-113100000D01*
X90200000Y-110900000D02*
X91600000Y-110900000D01*
X91600000Y-114100000D02*
X90200000Y-114100000D01*
X90200000Y-114100000D02*
X90200000Y-113100000D01*
X91600000Y-111900000D02*
X91600000Y-110900000D01*
X90200000Y-111900000D02*
X90200000Y-110900000D01*
%LPC*%
D20*
X93100000Y-61750000D03*
X91400000Y-61750000D03*
X89600000Y-136000000D03*
X87900000Y-136000000D03*
D21*
X104750000Y-97400000D03*
X104750000Y-99100000D03*
X113750000Y-106350000D03*
X113750000Y-104650000D03*
D20*
X96650000Y-142250000D03*
X98350000Y-142250000D03*
D21*
X83500000Y-148400000D03*
X83500000Y-150100000D03*
D22*
X88699640Y-65250000D03*
X84300360Y-65250000D03*
X114949640Y-76000000D03*
X110550360Y-76000000D03*
D23*
X83500000Y-142079500D03*
X83500000Y-139920500D03*
D20*
X89150000Y-117250000D03*
X90850000Y-117250000D03*
X90850000Y-119750000D03*
X89150000Y-119750000D03*
X112350000Y-118750000D03*
X110650000Y-118750000D03*
X100900000Y-117250000D03*
X102600000Y-117250000D03*
D21*
X88500000Y-92900000D03*
X88500000Y-94600000D03*
D24*
X95250000Y-53800360D03*
X95250000Y-58199640D03*
X106250000Y-75949640D03*
X106250000Y-71550360D03*
D25*
X91880000Y-150530000D03*
D26*
X91880000Y-153070000D03*
D27*
X83980000Y-93750000D03*
X86520000Y-94702500D03*
X86520000Y-92797500D03*
D28*
X94494600Y-142250000D03*
X92005400Y-142250000D03*
D25*
X106000000Y-150530000D03*
D26*
X106000000Y-153070000D03*
D29*
X97329500Y-61750000D03*
X95170500Y-61750000D03*
X95420500Y-78250000D03*
X97579500Y-78250000D03*
D30*
X85000000Y-52560000D03*
D31*
X85000000Y-61960000D03*
D32*
X89900000Y-57260000D03*
X81700000Y-57260000D03*
D30*
X85000000Y-76560000D03*
D31*
X85000000Y-85960000D03*
D32*
X89900000Y-81260000D03*
X81700000Y-81260000D03*
D30*
X85000000Y-100560000D03*
D31*
X85000000Y-109960000D03*
D32*
X89900000Y-105260000D03*
X81700000Y-105260000D03*
D30*
X85000000Y-124560000D03*
D31*
X85000000Y-133960000D03*
D32*
X89900000Y-129260000D03*
X81700000Y-129260000D03*
D30*
X85000000Y-144560000D03*
D31*
X85000000Y-153960000D03*
D32*
X89900000Y-149260000D03*
X81700000Y-149260000D03*
D33*
X94300000Y-149260000D03*
D34*
X103700000Y-149260000D03*
D35*
X99000000Y-144360000D03*
X99000000Y-152560000D03*
D30*
X113000000Y-153960000D03*
D31*
X113000000Y-144560000D03*
D32*
X108100000Y-149260000D03*
X116300000Y-149260000D03*
D36*
X95250000Y-75000000D03*
D37*
X97790000Y-75000000D03*
X95250000Y-72460000D03*
X97790000Y-72460000D03*
X95250000Y-69920000D03*
X97790000Y-69920000D03*
X95250000Y-67380000D03*
X97790000Y-67380000D03*
X95250000Y-64840000D03*
X97790000Y-64840000D03*
D38*
X86500000Y-139230000D03*
X85547500Y-141770000D03*
X87452500Y-141770000D03*
D27*
X85230000Y-148250000D03*
X87770000Y-149202500D03*
X87770000Y-147297500D03*
X91020000Y-125000000D03*
X88480000Y-124047500D03*
X88480000Y-125952500D03*
D39*
X108647700Y-119047560D03*
X108000000Y-119047560D03*
X107352300Y-119047560D03*
X107352300Y-117452440D03*
X108000000Y-117452440D03*
X108647700Y-117452440D03*
X105397700Y-119047560D03*
X104750000Y-119047560D03*
X104102300Y-119047560D03*
X104102300Y-117452440D03*
X104750000Y-117452440D03*
X105397700Y-117452440D03*
D21*
X81500000Y-145350000D03*
X81500000Y-143650000D03*
X91250000Y-145600000D03*
X91250000Y-143900000D03*
D20*
X87900000Y-137500000D03*
X89600000Y-137500000D03*
D21*
X88000000Y-143900000D03*
X88000000Y-145600000D03*
X87750000Y-150900000D03*
X87750000Y-152600000D03*
X100000000Y-120850000D03*
X100000000Y-119150000D03*
X89750000Y-143900000D03*
X89750000Y-145600000D03*
X81500000Y-140150000D03*
X81500000Y-141850000D03*
D20*
X81400000Y-137250000D03*
X83100000Y-137250000D03*
X89150000Y-121250000D03*
X90850000Y-121250000D03*
X89150000Y-115750000D03*
X90850000Y-115750000D03*
D21*
X115750000Y-117400000D03*
X115750000Y-119100000D03*
X100000000Y-124350000D03*
X100000000Y-122650000D03*
X105750000Y-123100000D03*
X105750000Y-121400000D03*
X107250000Y-123100000D03*
X107250000Y-121400000D03*
X110250000Y-123100000D03*
X110250000Y-121400000D03*
X108750000Y-123100000D03*
X108750000Y-121400000D03*
D20*
X109900000Y-109000000D03*
X111600000Y-109000000D03*
X112350000Y-117250000D03*
X110650000Y-117250000D03*
X95650000Y-106500000D03*
X97350000Y-106500000D03*
X95650000Y-102500000D03*
X97350000Y-102500000D03*
X111600000Y-101500000D03*
X109900000Y-101500000D03*
D21*
X106500000Y-97400000D03*
X106500000Y-99100000D03*
D20*
X95650000Y-101000000D03*
X97350000Y-101000000D03*
X97350000Y-108000000D03*
X95650000Y-108000000D03*
D21*
X108250000Y-99100000D03*
X108250000Y-97400000D03*
D20*
X97350000Y-105000000D03*
X95650000Y-105000000D03*
X102100000Y-142250000D03*
X100400000Y-142250000D03*
D21*
X101250000Y-137400000D03*
X101250000Y-139100000D03*
D20*
X88350000Y-91000000D03*
X86650000Y-91000000D03*
X96100000Y-134500000D03*
X94400000Y-134500000D03*
X94400000Y-133000000D03*
X96100000Y-133000000D03*
X97650000Y-134500000D03*
X99350000Y-134500000D03*
X99350000Y-136000000D03*
X97650000Y-136000000D03*
X109600000Y-153000000D03*
X107900000Y-153000000D03*
D40*
X109750000Y-67000000D03*
X109750000Y-71500000D03*
D41*
X116250000Y-67000000D03*
X116250000Y-71500000D03*
D42*
X103000000Y-124700000D03*
D25*
X102000000Y-121450000D03*
X104000000Y-121450000D03*
D42*
X113500000Y-121300000D03*
D25*
X114500000Y-124550000D03*
X112500000Y-124550000D03*
D43*
X94500000Y-91000000D03*
D44*
X98025000Y-128200000D03*
X97375000Y-128200000D03*
X96725000Y-128200000D03*
X96075000Y-128200000D03*
X95425000Y-128200000D03*
X94775000Y-128200000D03*
X94125000Y-128200000D03*
X93475000Y-128200000D03*
X93475000Y-122300000D03*
X94125000Y-122300000D03*
X94775000Y-122300000D03*
X95425000Y-122300000D03*
X96075000Y-122300000D03*
X96725000Y-122300000D03*
X97375000Y-122300000D03*
X98025000Y-122300000D03*
D45*
X95475000Y-119450000D03*
X94825000Y-119450000D03*
X94175000Y-119450000D03*
X93525000Y-119450000D03*
X93525000Y-113550000D03*
X94175000Y-113550000D03*
X94825000Y-113550000D03*
X95475000Y-113550000D03*
X107700000Y-109200000D03*
X107050000Y-109200000D03*
X106400000Y-109200000D03*
X105750000Y-109200000D03*
X105100000Y-109200000D03*
X104450000Y-109200000D03*
X103800000Y-109200000D03*
X103800000Y-103300000D03*
X104450000Y-103300000D03*
X105100000Y-103300000D03*
X105750000Y-103300000D03*
X106400000Y-103300000D03*
X107050000Y-103300000D03*
X107700000Y-103300000D03*
D46*
X97950000Y-138025000D03*
X97950000Y-138675000D03*
X97950000Y-139325000D03*
X97950000Y-139975000D03*
X92050000Y-139975000D03*
X92050000Y-139325000D03*
X92050000Y-138675000D03*
X92050000Y-138025000D03*
D47*
X110800000Y-57250000D03*
X101200000Y-57250000D03*
D48*
X108500000Y-64750000D03*
X106000000Y-64750000D03*
X103500000Y-64750000D03*
D47*
X110800000Y-81260000D03*
X101200000Y-81260000D03*
D48*
X108500000Y-88760000D03*
X106000000Y-88760000D03*
X103500000Y-88760000D03*
D47*
X110800000Y-105250000D03*
X101200000Y-105250000D03*
D48*
X108500000Y-112750000D03*
X106000000Y-112750000D03*
X103500000Y-112750000D03*
D47*
X110790000Y-129250000D03*
X101190000Y-129250000D03*
D48*
X108490000Y-136750000D03*
X105990000Y-136750000D03*
X103490000Y-136750000D03*
D21*
X90900000Y-113350000D03*
X90900000Y-111650000D03*
M02*
