G04 #@! TF.FileFunction,Legend,Top*
%FSLAX46Y46*%
G04 Gerber Fmt 4.6, Leading zero omitted, Abs format (unit mm)*
G04 Created by KiCad (PCBNEW 4.0.2-stable) date 2018-09-14 2:15:48 PM*
%MOMM*%
G01*
G04 APERTURE LIST*
%ADD10C,0.200000*%
%ADD11C,0.150000*%
%ADD12C,0.381000*%
%ADD13R,1.250000X1.250000*%
%ADD14C,1.250000*%
%ADD15O,4.050000X2.550000*%
%ADD16O,2.550000X2.050000*%
%ADD17O,1.550000X3.550000*%
%ADD18O,2.550000X4.050000*%
%ADD19O,2.050000X2.550000*%
%ADD20O,3.550000X1.550000*%
%ADD21R,1.750000X1.750000*%
%ADD22O,1.750000X1.750000*%
%ADD23O,2.250000X1.450000*%
%ADD24O,2.300000X1.450000*%
%ADD25R,2.850000X1.650000*%
%ADD26O,2.850000X3.550000*%
%ADD27C,1.800000*%
G04 APERTURE END LIST*
D10*
D11*
X87071428Y-51166667D02*
X87547619Y-51166667D01*
X86976190Y-51452381D02*
X87309523Y-50452381D01*
X87642857Y-51452381D01*
X87833333Y-50452381D02*
X88404762Y-50452381D01*
X88119047Y-51452381D02*
X88119047Y-50452381D01*
X88595238Y-50452381D02*
X89166667Y-50452381D01*
X88880952Y-51452381D02*
X88880952Y-50452381D01*
X89452381Y-51166667D02*
X89928572Y-51166667D01*
X89357143Y-51452381D02*
X89690476Y-50452381D01*
X90023810Y-51452381D01*
X90928572Y-51357143D02*
X90880953Y-51404762D01*
X90738096Y-51452381D01*
X90642858Y-51452381D01*
X90500000Y-51404762D01*
X90404762Y-51309524D01*
X90357143Y-51214286D01*
X90309524Y-51023810D01*
X90309524Y-50880952D01*
X90357143Y-50690476D01*
X90404762Y-50595238D01*
X90500000Y-50500000D01*
X90642858Y-50452381D01*
X90738096Y-50452381D01*
X90880953Y-50500000D01*
X90928572Y-50547619D01*
X91357143Y-51452381D02*
X91357143Y-50452381D01*
X91928572Y-51452381D02*
X91500000Y-50880952D01*
X91928572Y-50452381D02*
X91357143Y-51023810D01*
X87428571Y-75452381D02*
X87428571Y-74452381D01*
X87666666Y-74452381D01*
X87809524Y-74500000D01*
X87904762Y-74595238D01*
X87952381Y-74690476D01*
X88000000Y-74880952D01*
X88000000Y-75023810D01*
X87952381Y-75214286D01*
X87904762Y-75309524D01*
X87809524Y-75404762D01*
X87666666Y-75452381D01*
X87428571Y-75452381D01*
X88428571Y-74928571D02*
X88761905Y-74928571D01*
X88904762Y-75452381D02*
X88428571Y-75452381D01*
X88428571Y-74452381D01*
X88904762Y-74452381D01*
X89904762Y-75357143D02*
X89857143Y-75404762D01*
X89714286Y-75452381D01*
X89619048Y-75452381D01*
X89476190Y-75404762D01*
X89380952Y-75309524D01*
X89333333Y-75214286D01*
X89285714Y-75023810D01*
X89285714Y-74880952D01*
X89333333Y-74690476D01*
X89380952Y-74595238D01*
X89476190Y-74500000D01*
X89619048Y-74452381D01*
X89714286Y-74452381D01*
X89857143Y-74500000D01*
X89904762Y-74547619D01*
X90285714Y-75166667D02*
X90761905Y-75166667D01*
X90190476Y-75452381D02*
X90523809Y-74452381D01*
X90857143Y-75452381D01*
X91380952Y-74976190D02*
X91380952Y-75452381D01*
X91047619Y-74452381D02*
X91380952Y-74976190D01*
X91714286Y-74452381D01*
X87392857Y-99404762D02*
X87535714Y-99452381D01*
X87773810Y-99452381D01*
X87869048Y-99404762D01*
X87916667Y-99357143D01*
X87964286Y-99261905D01*
X87964286Y-99166667D01*
X87916667Y-99071429D01*
X87869048Y-99023810D01*
X87773810Y-98976190D01*
X87583333Y-98928571D01*
X87488095Y-98880952D01*
X87440476Y-98833333D01*
X87392857Y-98738095D01*
X87392857Y-98642857D01*
X87440476Y-98547619D01*
X87488095Y-98500000D01*
X87583333Y-98452381D01*
X87821429Y-98452381D01*
X87964286Y-98500000D01*
X88392857Y-98452381D02*
X88392857Y-99261905D01*
X88440476Y-99357143D01*
X88488095Y-99404762D01*
X88583333Y-99452381D01*
X88773810Y-99452381D01*
X88869048Y-99404762D01*
X88916667Y-99357143D01*
X88964286Y-99261905D01*
X88964286Y-98452381D01*
X89392857Y-99404762D02*
X89535714Y-99452381D01*
X89773810Y-99452381D01*
X89869048Y-99404762D01*
X89916667Y-99357143D01*
X89964286Y-99261905D01*
X89964286Y-99166667D01*
X89916667Y-99071429D01*
X89869048Y-99023810D01*
X89773810Y-98976190D01*
X89583333Y-98928571D01*
X89488095Y-98880952D01*
X89440476Y-98833333D01*
X89392857Y-98738095D01*
X89392857Y-98642857D01*
X89440476Y-98547619D01*
X89488095Y-98500000D01*
X89583333Y-98452381D01*
X89821429Y-98452381D01*
X89964286Y-98500000D01*
X90250000Y-98452381D02*
X90821429Y-98452381D01*
X90535714Y-99452381D02*
X90535714Y-98452381D01*
X91107143Y-99166667D02*
X91583334Y-99166667D01*
X91011905Y-99452381D02*
X91345238Y-98452381D01*
X91678572Y-99452381D01*
X92011905Y-99452381D02*
X92011905Y-98452381D01*
X92488095Y-99452381D02*
X92488095Y-98452381D01*
X93059524Y-99452381D01*
X93059524Y-98452381D01*
X87392857Y-123202381D02*
X87059523Y-122726190D01*
X86821428Y-123202381D02*
X86821428Y-122202381D01*
X87202381Y-122202381D01*
X87297619Y-122250000D01*
X87345238Y-122297619D01*
X87392857Y-122392857D01*
X87392857Y-122535714D01*
X87345238Y-122630952D01*
X87297619Y-122678571D01*
X87202381Y-122726190D01*
X86821428Y-122726190D01*
X87821428Y-122678571D02*
X88154762Y-122678571D01*
X88297619Y-123202381D02*
X87821428Y-123202381D01*
X87821428Y-122202381D01*
X88297619Y-122202381D01*
X89202381Y-123202381D02*
X88726190Y-123202381D01*
X88726190Y-122202381D01*
X89535714Y-122678571D02*
X89869048Y-122678571D01*
X90011905Y-123202381D02*
X89535714Y-123202381D01*
X89535714Y-122202381D01*
X90011905Y-122202381D01*
X90392857Y-122916667D02*
X90869048Y-122916667D01*
X90297619Y-123202381D02*
X90630952Y-122202381D01*
X90964286Y-123202381D01*
X91250000Y-123154762D02*
X91392857Y-123202381D01*
X91630953Y-123202381D01*
X91726191Y-123154762D01*
X91773810Y-123107143D01*
X91821429Y-123011905D01*
X91821429Y-122916667D01*
X91773810Y-122821429D01*
X91726191Y-122773810D01*
X91630953Y-122726190D01*
X91440476Y-122678571D01*
X91345238Y-122630952D01*
X91297619Y-122583333D01*
X91250000Y-122488095D01*
X91250000Y-122392857D01*
X91297619Y-122297619D01*
X91345238Y-122250000D01*
X91440476Y-122202381D01*
X91678572Y-122202381D01*
X91821429Y-122250000D01*
X92250000Y-122678571D02*
X92583334Y-122678571D01*
X92726191Y-123202381D02*
X92250000Y-123202381D01*
X92250000Y-122202381D01*
X92726191Y-122202381D01*
X110690476Y-142071429D02*
X111452381Y-142071429D01*
X111071429Y-142452381D02*
X111071429Y-141690476D01*
X112119047Y-141452381D02*
X112309524Y-141452381D01*
X112404762Y-141500000D01*
X112500000Y-141595238D01*
X112547619Y-141785714D01*
X112547619Y-142119048D01*
X112500000Y-142309524D01*
X112404762Y-142404762D01*
X112309524Y-142452381D01*
X112119047Y-142452381D01*
X112023809Y-142404762D01*
X111928571Y-142309524D01*
X111880952Y-142119048D01*
X111880952Y-141785714D01*
X111928571Y-141595238D01*
X112023809Y-141500000D01*
X112119047Y-141452381D01*
X112976190Y-141452381D02*
X112976190Y-142261905D01*
X113023809Y-142357143D01*
X113071428Y-142404762D01*
X113166666Y-142452381D01*
X113357143Y-142452381D01*
X113452381Y-142404762D01*
X113500000Y-142357143D01*
X113547619Y-142261905D01*
X113547619Y-141452381D01*
X113880952Y-141452381D02*
X114452381Y-141452381D01*
X114166666Y-142452381D02*
X114166666Y-141452381D01*
X97190476Y-142071429D02*
X97952381Y-142071429D01*
X98619047Y-141452381D02*
X98809524Y-141452381D01*
X98904762Y-141500000D01*
X99000000Y-141595238D01*
X99047619Y-141785714D01*
X99047619Y-142119048D01*
X99000000Y-142309524D01*
X98904762Y-142404762D01*
X98809524Y-142452381D01*
X98619047Y-142452381D01*
X98523809Y-142404762D01*
X98428571Y-142309524D01*
X98380952Y-142119048D01*
X98380952Y-141785714D01*
X98428571Y-141595238D01*
X98523809Y-141500000D01*
X98619047Y-141452381D01*
X99476190Y-141452381D02*
X99476190Y-142261905D01*
X99523809Y-142357143D01*
X99571428Y-142404762D01*
X99666666Y-142452381D01*
X99857143Y-142452381D01*
X99952381Y-142404762D01*
X100000000Y-142357143D01*
X100047619Y-142261905D01*
X100047619Y-141452381D01*
X100380952Y-141452381D02*
X100952381Y-141452381D01*
X100666666Y-142452381D02*
X100666666Y-141452381D01*
X84000000Y-141500000D02*
X83904762Y-141452381D01*
X83761905Y-141452381D01*
X83619047Y-141500000D01*
X83523809Y-141595238D01*
X83476190Y-141690476D01*
X83428571Y-141880952D01*
X83428571Y-142023810D01*
X83476190Y-142214286D01*
X83523809Y-142309524D01*
X83619047Y-142404762D01*
X83761905Y-142452381D01*
X83857143Y-142452381D01*
X84000000Y-142404762D01*
X84047619Y-142357143D01*
X84047619Y-142023810D01*
X83857143Y-142023810D01*
X84428571Y-142166667D02*
X84904762Y-142166667D01*
X84333333Y-142452381D02*
X84666666Y-141452381D01*
X85000000Y-142452381D01*
X85190476Y-141452381D02*
X85761905Y-141452381D01*
X85476190Y-142452381D02*
X85476190Y-141452381D01*
X86095238Y-141928571D02*
X86428572Y-141928571D01*
X86571429Y-142452381D02*
X86095238Y-142452381D01*
X86095238Y-141452381D01*
X86571429Y-141452381D01*
X91880000Y-153100000D02*
X91880000Y-153300000D01*
X91880000Y-150600000D02*
X91880000Y-150300000D01*
X91880000Y-152200000D02*
X91880000Y-153100000D01*
X91880000Y-150600000D02*
X91880000Y-151500000D01*
X92380000Y-152200000D02*
X91380000Y-152200000D01*
X92380000Y-151500000D02*
X91380000Y-151500000D01*
X91380000Y-151500000D02*
X91880000Y-152200000D01*
X91880000Y-152200000D02*
X92380000Y-151500000D01*
X93380000Y-151800000D02*
G75*
G03X93380000Y-151800000I-1500000J0D01*
G01*
X106000000Y-153100000D02*
X106000000Y-153300000D01*
X106000000Y-150600000D02*
X106000000Y-150300000D01*
X106000000Y-152200000D02*
X106000000Y-153100000D01*
X106000000Y-150600000D02*
X106000000Y-151500000D01*
X106500000Y-152200000D02*
X105500000Y-152200000D01*
X106500000Y-151500000D02*
X105500000Y-151500000D01*
X105500000Y-151500000D02*
X106000000Y-152200000D01*
X106000000Y-152200000D02*
X106500000Y-151500000D01*
X107500000Y-151800000D02*
G75*
G03X107500000Y-151800000I-1500000J0D01*
G01*
X87915476Y-57260000D02*
G75*
G03X87915476Y-57260000I-2915476J0D01*
G01*
X80000000Y-62260000D02*
X80000000Y-52260000D01*
X80000000Y-52260000D02*
X91000000Y-52260000D01*
X91000000Y-52260000D02*
X91000000Y-62260000D01*
X91000000Y-62260000D02*
X80000000Y-62260000D01*
X87000000Y-57260000D02*
G75*
G03X87000000Y-57260000I-2000000J0D01*
G01*
X87915476Y-81260000D02*
G75*
G03X87915476Y-81260000I-2915476J0D01*
G01*
X80000000Y-86260000D02*
X80000000Y-76260000D01*
X80000000Y-76260000D02*
X91000000Y-76260000D01*
X91000000Y-76260000D02*
X91000000Y-86260000D01*
X91000000Y-86260000D02*
X80000000Y-86260000D01*
X87000000Y-81260000D02*
G75*
G03X87000000Y-81260000I-2000000J0D01*
G01*
X87915476Y-105260000D02*
G75*
G03X87915476Y-105260000I-2915476J0D01*
G01*
X80000000Y-110260000D02*
X80000000Y-100260000D01*
X80000000Y-100260000D02*
X91000000Y-100260000D01*
X91000000Y-100260000D02*
X91000000Y-110260000D01*
X91000000Y-110260000D02*
X80000000Y-110260000D01*
X87000000Y-105260000D02*
G75*
G03X87000000Y-105260000I-2000000J0D01*
G01*
X87915476Y-129260000D02*
G75*
G03X87915476Y-129260000I-2915476J0D01*
G01*
X80000000Y-134260000D02*
X80000000Y-124260000D01*
X80000000Y-124260000D02*
X91000000Y-124260000D01*
X91000000Y-124260000D02*
X91000000Y-134260000D01*
X91000000Y-134260000D02*
X80000000Y-134260000D01*
X87000000Y-129260000D02*
G75*
G03X87000000Y-129260000I-2000000J0D01*
G01*
X87915476Y-149260000D02*
G75*
G03X87915476Y-149260000I-2915476J0D01*
G01*
X80000000Y-154260000D02*
X80000000Y-144260000D01*
X80000000Y-144260000D02*
X91000000Y-144260000D01*
X91000000Y-144260000D02*
X91000000Y-154260000D01*
X91000000Y-154260000D02*
X80000000Y-154260000D01*
X87000000Y-149260000D02*
G75*
G03X87000000Y-149260000I-2000000J0D01*
G01*
X101915476Y-149260000D02*
G75*
G03X101915476Y-149260000I-2915476J0D01*
G01*
X104000000Y-154260000D02*
X94000000Y-154260000D01*
X94000000Y-154260000D02*
X94000000Y-143260000D01*
X94000000Y-143260000D02*
X104000000Y-143260000D01*
X104000000Y-143260000D02*
X104000000Y-154260000D01*
X101000000Y-149260000D02*
G75*
G03X101000000Y-149260000I-2000000J0D01*
G01*
X115915476Y-149260000D02*
G75*
G03X115915476Y-149260000I-2915476J0D01*
G01*
X118000000Y-144260000D02*
X118000000Y-154260000D01*
X118000000Y-154260000D02*
X107000000Y-154260000D01*
X107000000Y-154260000D02*
X107000000Y-144260000D01*
X107000000Y-144260000D02*
X118000000Y-144260000D01*
X115000000Y-149260000D02*
G75*
G03X115000000Y-149260000I-2000000J0D01*
G01*
X111750000Y-68000000D02*
X114250000Y-68000000D01*
X114250000Y-68000000D02*
X114250000Y-70500000D01*
X114250000Y-70500000D02*
X111750000Y-70500000D01*
X111750000Y-70500000D02*
X111750000Y-68000000D01*
X114820027Y-69250000D02*
G75*
G03X114820027Y-69250000I-1820027J0D01*
G01*
X110000000Y-66250000D02*
X116000000Y-66250000D01*
X116000000Y-66250000D02*
X116000000Y-72250000D01*
X116000000Y-72250000D02*
X110000000Y-72250000D01*
X110000000Y-72250000D02*
X110000000Y-66250000D01*
D12*
X108236068Y-57250000D02*
G75*
G03X108236068Y-57250000I-2236068J0D01*
G01*
X101000000Y-57250000D02*
X101000000Y-52250000D01*
X101000000Y-52250000D02*
X111000000Y-52250000D01*
X111000000Y-52250000D02*
X111000000Y-63250000D01*
X111000000Y-63250000D02*
X101000000Y-63250000D01*
X101000000Y-63250000D02*
X101000000Y-57250000D01*
X108236068Y-81260000D02*
G75*
G03X108236068Y-81260000I-2236068J0D01*
G01*
X101000000Y-81260000D02*
X101000000Y-76260000D01*
X101000000Y-76260000D02*
X111000000Y-76260000D01*
X111000000Y-76260000D02*
X111000000Y-87260000D01*
X111000000Y-87260000D02*
X101000000Y-87260000D01*
X101000000Y-87260000D02*
X101000000Y-81260000D01*
X108236068Y-105250000D02*
G75*
G03X108236068Y-105250000I-2236068J0D01*
G01*
X101000000Y-105250000D02*
X101000000Y-100250000D01*
X101000000Y-100250000D02*
X111000000Y-100250000D01*
X111000000Y-100250000D02*
X111000000Y-111250000D01*
X111000000Y-111250000D02*
X101000000Y-111250000D01*
X101000000Y-111250000D02*
X101000000Y-105250000D01*
X108226068Y-129250000D02*
G75*
G03X108226068Y-129250000I-2236068J0D01*
G01*
X100990000Y-129250000D02*
X100990000Y-124250000D01*
X100990000Y-124250000D02*
X110990000Y-124250000D01*
X110990000Y-124250000D02*
X110990000Y-135250000D01*
X110990000Y-135250000D02*
X100990000Y-135250000D01*
X100990000Y-135250000D02*
X100990000Y-129250000D01*
%LPC*%
D13*
X91880000Y-150530000D03*
D14*
X91880000Y-153070000D03*
D13*
X106000000Y-150530000D03*
D14*
X106000000Y-153070000D03*
D15*
X85000000Y-52560000D03*
D16*
X85000000Y-61960000D03*
D17*
X89900000Y-57260000D03*
X81700000Y-57260000D03*
D15*
X85000000Y-76560000D03*
D16*
X85000000Y-85960000D03*
D17*
X89900000Y-81260000D03*
X81700000Y-81260000D03*
D15*
X85000000Y-100560000D03*
D16*
X85000000Y-109960000D03*
D17*
X89900000Y-105260000D03*
X81700000Y-105260000D03*
D15*
X85000000Y-124560000D03*
D16*
X85000000Y-133960000D03*
D17*
X89900000Y-129260000D03*
X81700000Y-129260000D03*
D15*
X85000000Y-144560000D03*
D16*
X85000000Y-153960000D03*
D17*
X89900000Y-149260000D03*
X81700000Y-149260000D03*
D18*
X94300000Y-149260000D03*
D19*
X103700000Y-149260000D03*
D20*
X99000000Y-144360000D03*
X99000000Y-152560000D03*
D15*
X113000000Y-153960000D03*
D16*
X113000000Y-144560000D03*
D17*
X108100000Y-149260000D03*
X116300000Y-149260000D03*
D21*
X95250000Y-75000000D03*
D22*
X97790000Y-75000000D03*
X95250000Y-72460000D03*
X97790000Y-72460000D03*
X95250000Y-69920000D03*
X97790000Y-69920000D03*
X95250000Y-67380000D03*
X97790000Y-67380000D03*
X95250000Y-64840000D03*
X97790000Y-64840000D03*
D23*
X109750000Y-67000000D03*
X109750000Y-71500000D03*
D24*
X116250000Y-67000000D03*
X116250000Y-71500000D03*
D25*
X94500000Y-91000000D03*
D26*
X110800000Y-57250000D03*
X101200000Y-57250000D03*
D27*
X108500000Y-64750000D03*
X106000000Y-64750000D03*
X103500000Y-64750000D03*
D26*
X110800000Y-81260000D03*
X101200000Y-81260000D03*
D27*
X108500000Y-88760000D03*
X106000000Y-88760000D03*
X103500000Y-88760000D03*
D26*
X110800000Y-105250000D03*
X101200000Y-105250000D03*
D27*
X108500000Y-112750000D03*
X106000000Y-112750000D03*
X103500000Y-112750000D03*
D26*
X110790000Y-129250000D03*
X101190000Y-129250000D03*
D27*
X108490000Y-136750000D03*
X105990000Y-136750000D03*
X103490000Y-136750000D03*
M02*
